<?xml version="1.0" encoding="UTF-8"?>
<svg width="1188px" height="422px" viewBox="0 0 1188 422" version="1.1" xmlns="http://www.w3.org/2000/svg" xmlns:xlink="http://www.w3.org/1999/xlink">
    <!-- Generator: Sketch 3.8.1 (29687) - http://www.bohemiancoding.com/sketch -->
    <title>Group 2 Copy</title>
    <desc>Created with Sketch.</desc>
    <defs></defs>
    <g id="Page-1" stroke="none" stroke-width="1" fill="none" fill-rule="evenodd">
        <g id="Group-2-Copy" transform="translate(-8.000000, -129.000000)">
            <text id="J" font-family="Cinzel-Regular, Cinzel" font-size="439.874739" font-weight="normal" fill="#FFFFFF">
                <tspan x="0" y="440">J</tspan>
            </text>
            <text id="Cohen" font-family="Cinzel-Regular, Cinzel" font-size="276.492693" font-weight="normal" fill="#FFFFFF">
                <tspan x="125.705645" y="326.271399">Cohen</tspan>
            </text>
            <text id="CPA" font-family="Cinzel-Regular, Cinzel" font-size="276.492693" font-weight="normal" fill="#FFFFFF">
                <tspan x="646.127016" y="546.208768">CPA</tspan>
            </text>
            <g id="Group-7" transform="translate(75.000000, 363.000000)" fill="#1583CC">
                <polygon id="Rectangle-10" transform="translate(142.455796, 100.468399) rotate(-32.000000) translate(-142.455796, -100.468399) " points="-12.6104597 80.6040673 50.0865625 80.6040673 297.522051 80.6040673 297.522051 120.332731 50.0865625 120.332731"></polygon>
                <polygon id="Rectangle-10-Copy" transform="translate(253.076764, 100.468399) rotate(-32.000000) translate(-253.076764, -100.468399) " points="98.010508 80.6040673 160.70753 80.6040673 408.143019 80.6040673 408.143019 120.332731 160.70753 120.332731"></polygon>
                <polygon id="Rectangle-10-Copy-2" transform="translate(367.468901, 99.211614) rotate(-32.000000) translate(-367.468901, -99.211614) " points="212.402645 79.3472823 275.099667 79.3472823 522.535156 79.3472823 522.535156 119.075946 275.099667 119.075946"></polygon>
                <polygon id="Rectangle-13" transform="translate(524.682606, 96.517119) rotate(58.000000) translate(-524.682606, -96.517119) " points="423.510574 76.6536323 600.262947 76.6536323 625.854637 76.6536323 600.262947 116.380606 423.510574 116.380606"></polygon>
                <rect id="Rectangle-13-Copy" transform="translate(382.110402, 50.674833) rotate(58.000000) translate(-382.110402, -50.674833) " x="336.488574" y="30.8113466" width="91.2436547" height="39.7269736"></rect>
                <rect id="Rectangle-13-Copy-2" transform="translate(269.053336, 46.777104) rotate(58.000000) translate(-269.053336, -46.777104) " x="228.02862" y="26.9136172" width="82.0494323" height="39.7269736"></rect>
            </g>
        </g>
    </g>
</svg>