<?xml version="1.0" encoding="UTF-8" standalone="no"?>
<svg width="1188px" height="422px" viewBox="0 0 1188 422" version="1.1" xmlns="http://www.w3.org/2000/svg" xmlns:xlink="http://www.w3.org/1999/xlink">
    <!-- Generator: Sketch 3.8.1 (29687) - http://www.bohemiancoding.com/sketch -->
    <title>Group 2</title>
    <desc>Created with Sketch.</desc>
    <defs></defs>
    <g id="Page-1" stroke="none" stroke-width="1" fill="none" fill-rule="evenodd">
        <g id="Group-2" transform="translate(-8.000000, -129.000000)">
            <text id="J" font-family="Cinzel-Regular, Cinzel" font-size="439.874739" font-weight="normal" fill="#6D6D6D">
                <tspan x="0" y="440">J</tspan>
            </text>
            <text id="Cohen" font-family="Cinzel-Regular, Cinzel" font-size="276.492693" font-weight="normal" fill="#6D6D6D">
                <tspan x="125.705645" y="326.271399">Cohen</tspan>
            </text>
            <text id="CPA" font-family="Cinzel-Regular, Cinzel" font-size="276.492693" font-weight="normal" fill="#6D6D6D">
                <tspan x="646.127016" y="546.208768">CPA</tspan>
            </text>
            <polygon id="Rectangle-10" fill="#D8D8D8" transform="translate(217.455796, 463.468399) rotate(-32.000000) translate(-217.455796, -463.468399) " points="62.3895403 443.604067 125.086563 443.604067 372.522051 443.604067 372.522051 483.332731 125.086563 483.332731"></polygon>
            <polygon id="Rectangle-10-Copy" fill="#D8D8D8" transform="translate(328.076764, 463.468399) rotate(-32.000000) translate(-328.076764, -463.468399) " points="173.010508 443.604067 235.70753 443.604067 483.143019 443.604067 483.143019 483.332731 235.70753 483.332731"></polygon>
            <polygon id="Rectangle-10-Copy-2" fill="#D8D8D8" transform="translate(442.468901, 462.211614) rotate(-32.000000) translate(-442.468901, -462.211614) " points="287.402645 442.347282 350.099667 442.347282 597.535156 442.347282 597.535156 482.075946 350.099667 482.075946"></polygon>
            <polygon id="Rectangle-13" fill="#D8D8D8" transform="translate(599.682606, 459.517119) rotate(58.000000) translate(-599.682606, -459.517119) " points="498.510574 439.653632 675.262947 439.653632 700.854637 439.653632 675.262947 479.380606 498.510574 479.380606"></polygon>
            <rect id="Rectangle-13-Copy" fill="#D8D8D8" transform="translate(457.110402, 413.674833) rotate(58.000000) translate(-457.110402, -413.674833) " x="411.488574" y="393.811347" width="91.2436547" height="39.7269736"></rect>
            <rect id="Rectangle-13-Copy-2" fill="#D8D8D8" transform="translate(344.053336, 409.777104) rotate(58.000000) translate(-344.053336, -409.777104) " x="303.02862" y="389.913617" width="82.0494323" height="39.7269736"></rect>
        </g>
    </g>
</svg>